<svg width="41" height="45" viewBox="0 0 41 45" xmlns="http://www.w3.org/2000/svg"><title>867A359E-8BD2-4AB0-B691-4C941454B224</title><path d="M18.89 21.763a5.025 5.025 0 0 1-1.453 3.548l-3.652 4.04h3.562a1.543 1.543 0 0 1 0 3.086H10.31a1.543 1.543 0 0 1-1.144-2.578l6.006-6.643c.017-.02.035-.038.053-.057.374-.373.58-.869.58-1.396 0-1.09-.887-1.976-1.976-1.976-1.09 0-1.976.887-1.976 1.976a1.543 1.543 0 0 1-3.085 0c0-2.79 2.27-5.061 5.06-5.061 2.791 0 5.062 2.27 5.062 5.06zm1.596 6.586a1.543 1.543 0 0 1 .138-1.612l6.965-9.41a1.543 1.543 0 0 1 2.782.918v7.867h.199a1.543 1.543 0 0 1 0 3.085h-.199v1.697a1.543 1.543 0 0 1-3.085 0v-1.697h-5.422a1.543 1.543 0 0 1-1.378-.848zm6.8-5.427l-2.361 3.19h2.36v-3.19zm7.608-12.806A20.306 20.306 0 0 1 40.88 24.57c0 5.46-2.126 10.593-5.986 14.454C30.909 43.007 25.674 45 20.44 45c-5.235 0-10.468-1.992-14.453-5.977A20.305 20.305 0 0 1 0 24.569c0-5.46 2.126-10.592 5.987-14.453a20.3 20.3 0 0 1 10.137-5.531l-2.591-1.767A1.543 1.543 0 0 1 15.27.268l6.054 4.13a1.543 1.543 0 0 1 .405 2.145l-4.18 6.126a1.542 1.542 0 1 1-2.548-1.738l2.345-3.438a17.226 17.226 0 0 0-9.178 4.805 17.24 17.24 0 0 0-5.083 12.271 17.24 17.24 0 0 0 5.083 12.272c6.766 6.767 17.776 6.767 24.543 0a17.241 17.241 0 0 0 5.083-12.272c0-4.635-1.805-8.993-5.083-12.271a1.543 1.543 0 0 1 2.182-2.182z" fill="#FFF" fill-rule="evenodd"/></svg>