<svg width="43" height="39" viewBox="0 0 43 39" xmlns="http://www.w3.org/2000/svg"><title>FC41C131-01F6-4114-8F37-06739800FCC5</title><path d="M43 9.723a9.732 9.732 0 0 1-4.107 7.942C41.377 19.438 43 22.334 43 25.607c0 5.37-4.37 9.732-9.732 9.732h-5.01v1.57c0 .992-.8 1.791-1.791 1.791-.992 0-1.79-.799-1.79-1.79v-1.571H9.732c-5.37 0-9.732-4.37-9.732-9.732a9.716 9.716 0 0 1 4.107-7.933A9.732 9.732 0 0 1 9.732 0h23.536C38.638 0 43 4.361 43 9.723zm-39.42.009c0 3.387 2.765 6.143 6.152 6.152h23.536c3.387 0 6.143-2.765 6.143-6.152a6.15 6.15 0 0 0-6.143-6.143H9.732c-3.396 0-6.152 2.756-6.152 6.143zm29.688 22.027c3.387 0 6.152-2.765 6.143-6.152 0-3.396-2.756-6.152-6.143-6.152H9.732a6.159 6.159 0 0 0-6.152 6.152c0 3.387 2.765 6.143 6.152 6.143h14.945v-3.493l-1.422 1.413a1.79 1.79 0 0 1-2.536-.009 1.79 1.79 0 0 1 .009-2.536l4.475-4.44a1.796 1.796 0 0 1 2.528 0l4.475 4.44c.702.702.702 1.834.009 2.536-.351.351-1.553.992-2.536.009l-1.422-1.413v3.502h5.01zm-16.49-7.942c.992 0 1.791.798 1.791 1.79s-.799 1.79-1.79 1.79h-.781c-.992 0-1.79-.798-1.79-1.79s.798-1.79 1.79-1.79h.78zm-6.712 0c.982 0 1.79.798 1.79 1.79s-.799 1.79-1.79 1.79h-.782c-.991 0-1.79-.798-1.79-1.79s.799-1.79 1.79-1.79h.782zm5.537-12.295c-.992 0-1.79-.798-1.79-1.79s.798-1.79 1.79-1.79h.78c.992 0 1.791.798 1.791 1.79s-.799 1.79-1.79 1.79h-.781zm-6.713 0a1.78 1.78 0 0 1-1.79-1.79c0-.992.798-1.79 1.79-1.79h.78c.992 0 1.79.798 1.79 1.79s-.798 1.79-1.79 1.79h-.78z" fill="#FFF" fill-rule="evenodd"/></svg>