<svg width="43" height="43" viewBox="0 0 43 43" xmlns="http://www.w3.org/2000/svg"><title>2CCEE151-9241-4BAC-AD80-BD33B864D02F</title><path d="M9.214 0c5.081 0 9.215 4.134 9.215 9.214s-4.134 9.214-9.215 9.214C4.134 18.428 0 14.295 0 9.214 0 4.134 4.134 0 9.214 0zm0 15.357a6.15 6.15 0 0 0 6.144-6.143 6.15 6.15 0 0 0-6.143-6.143 6.15 6.15 0 0 0-6.143 6.143 6.15 6.15 0 0 0 6.143 6.143zm24.572 9.215c5.08 0 9.215 4.133 9.215 9.214C43 38.866 38.867 43 33.786 43c-5.08 0-9.214-4.133-9.214-9.214 0-5.08 4.133-9.214 9.214-9.214zm-6.143 9.213a6.15 6.15 0 0 0 6.143 6.144 6.15 6.15 0 0 0 6.143-6.144 6.15 6.15 0 0 0-6.143-6.142 6.15 6.15 0 0 0-6.143 6.142zM36.703 6.3c1.199 1.2-.152 2.525-1.352 3.725L9.29 36.086c-.6.6-1.386.9-2.171.9-.786 0-.221.318-.821-.281-1.2-1.2-.718-2.265.482-3.465L32.84 7.178c1.2-1.199 2.662-2.078 3.861-.879z" fill="#FFF" fill-rule="evenodd"/></svg>