<svg width="43" height="34" viewBox="0 0 43 34" xmlns="http://www.w3.org/2000/svg"><title>60D11607-80A0-4DC6-A26A-6B9624AFD47D</title><path d="M28.988 16.512l11.086-11.39-.038 22.578-11.048-11.188zm-12.52 2.466l3.72 3.72c.781.78 1.834.772 2.606 0l3.676-3.676 12.588 11.364-34.671.124 12.081-11.532zm4.976.891L4.794 2.817l34.03-.124-17.38 17.176zM2.987 5.103l10.972 11.365-11.01 11.126.038-22.49zM1.772 0C.834 0 0 .737 0 1.764v29.778c0 .93.746 1.772 1.772 1.772h39.456A1.767 1.767 0 0 0 43 31.542V1.764A1.778 1.778 0 0 0 41.219 0H1.772z" fill="#FFF" fill-rule="evenodd"/></svg>