<svg width="30" height="42" viewBox="0 0 30 42" xmlns="http://www.w3.org/2000/svg"><title>1C51928C-C113-4BA1-BF4D-7FC7D59492DC</title><path d="M8.388 3.395h9.095c4.994 0 9.058 4.042 9.058 9.01 0 4.97-4.071 9.012-9.078 9.012H8.388V3.395zm9.075 21.417c6.878 0 12.473-5.566 12.473-12.406C29.936 5.565 24.349 0 17.483 0H6.69c-.938 0-1.697.76-1.697 1.698v19.72H1.698a1.697 1.697 0 1 0 0 3.394h3.295v4.159H1.698a1.698 1.698 0 1 0 0 3.395h3.295v7.936a1.697 1.697 0 1 0 3.395 0v-7.936h9.207a1.697 1.697 0 1 0 0-3.395H8.388v-4.159h9.075z" fill="#FFF" fill-rule="evenodd"/></svg>