<svg width="43" height="39" viewBox="0 0 43 39" xmlns="http://www.w3.org/2000/svg"><title>8B0FD115-4DC3-4E47-BC7D-CE30FA856E78</title><path d="M35.989 38.7l-11.254-8.997H9.254C4.152 29.703 0 25.569 0 20.49V9.213C0 4.133 4.152 0 9.254 0h24.492C38.848 0 43 4.134 43 9.213V20.49c0 4.274-2.94 7.925-7.011 8.935V38.7zM2.688 9.213V20.49c0 3.636 2.946 6.594 6.566 6.594h16.441l7.606 6.08v-5.989l1.186-.137a6.581 6.581 0 0 0 5.825-6.548V9.213c0-3.636-2.946-6.595-6.566-6.595H9.254c-3.62 0-6.566 2.96-6.566 6.595zM12.9 17.09c-1.187 0-2.15-.938-2.15-2.095 0-1.157.963-2.095 2.15-2.095 1.187 0 2.15.938 2.15 2.095 0 1.157-.963 2.095-2.15 2.095zm8.6 0c-1.187 0-2.15-.938-2.15-2.095 0-1.157.963-2.095 2.15-2.095 1.187 0 2.15.938 2.15 2.095 0 1.157-.963 2.095-2.15 2.095zm8.6 0c-1.187 0-2.15-.938-2.15-2.095 0-1.157.963-2.095 2.15-2.095 1.187 0 2.15.938 2.15 2.095 0 1.157-.963 2.095-2.15 2.095z" fill="#FFF" fill-rule="evenodd"/></svg>