<svg width="43" height="45" viewBox="0 0 43 45" xmlns="http://www.w3.org/2000/svg"><title>BDC96595-4306-48AB-BBAE-FD7A45904995</title><path d="M4.116 23c-.028.4-.57 1.708-1.716 1.378-.904.012-1.162-1.105-1.133-1.522a19.615 19.615 0 0 1 14.35-17.568A5.313 5.313 0 0 1 20.925 0a5.314 5.314 0 0 1 5.308 5.307 5.314 5.314 0 0 1-5.308 5.307c-2.407 0-4.186-1.59-4.442-2.73C9.178 10.001 4.656 15.35 4.116 23zm27.362-12.602c-.325-.236-1.146-1.389-.26-2.186.47-.772 1.554-.4 1.892-.153a19.615 19.615 0 0 1 7.293 21.479 5.313 5.313 0 0 1 1.673 7.303 5.314 5.314 0 0 1-7.313 1.688 5.314 5.314 0 0 1-1.689-7.313c1.276-2.042 3.568-2.708 4.67-2.32 2.075-7.317-.065-13.986-6.266-18.498zm-2.776 30.428c.37-.156 1.78-.267 2.007.904.42.8-.457 1.537-.842 1.7a19.615 19.615 0 0 1-22.168-4.811A5.313 5.313 0 0 1 .578 36.29a5.314 5.314 0 0 1 2.32-7.138 5.314 5.314 0 0 1 7.137 2.32c1.093 2.144.484 4.452-.416 5.198 5.203 5.546 12.022 7.146 19.083 4.155z" fill="#FFF" fill-rule="evenodd"/></svg>