<?xml version="1.0" encoding="UTF-8"?>
<svg width="36px" height="28px" viewBox="0 0 36 28" version="1.1" xmlns="http://www.w3.org/2000/svg" xmlns:xlink="http://www.w3.org/1999/xlink">
    <!-- Generator: sketchtool 42 (36781) - http://www.bohemiancoding.com/sketch -->
    <title>FEEA3246-A81F-427F-80B9-3E035D1AB600</title>
    <desc>Created with sketchtool.</desc>
    <defs></defs>
    <g id="Page-1" stroke="none" stroke-width="1" fill="none" fill-rule="evenodd">
        <g id="GBooking---Вакансия" transform="translate(-930.000000, -1884.000000)" fill="#FFFFFF">
            <g id="Подвал" transform="translate(0.000000, 1848.000000)">
                <path d="M934.05282,58.9222061 C933.954513,58.5630203 933.759432,57.8668822 932.733627,57.8668822 C932.137461,57.8668822 931.2366,58.2935351 931.2366,59.9721633 C931.2366,61.0380289 931.686934,62.025694 932.733627,62.025694 C933.422543,62.025694 933.905839,61.6097745 934.05282,60.8808612 L935.290953,60.8808612 C935.045664,62.1759617 934.201335,63.0762262 932.711015,63.0762262 C931.131011,63.0762262 930,62.0015438 930,59.9551048 C930,57.8739739 931.196549,56.81865 932.726537,56.81865 C934.505454,56.81865 935.223307,58.0466668 935.290953,58.9222061 L934.05282,58.9222061 Z M936.806588,60.1854514 L938.262223,58.5135316 L939.679914,58.5135316 L938.132488,60.2165016 L939.721498,62.9209368 L938.336384,62.9209368 L937.286434,61.0280238 L936.806588,61.5290439 L936.806588,62.9209368 L935.65124,62.9209368 L935.65124,58.5135316 L936.806588,58.5135316 L936.806588,60.1854514 Z M943.94832,60.7086092 C943.94832,62.297345 942.882848,63.0366084 941.703354,63.0366084 C940.525585,63.0366084 939.451489,62.3082701 939.451489,60.7189592 C939.451489,59.1283067 940.525585,58.39901 941.703354,58.39901 C942.882848,58.39901 943.94832,59.1196816 943.94832,60.7086092 Z M948.289718,58.513225 L948.289718,62.9210135 L947.134371,62.9210135 L947.134371,59.440898 L945.898154,59.440898 L945.898154,60.8000156 C945.898154,62.4857355 945.390713,63.0174225 944.578961,63.0174225 C944.376981,63.0174225 944.046991,62.9848389 943.876056,62.9210135 L943.876056,62.0590826 C943.90001,62.0763327 944.046991,62.0920495 944.217735,62.0920495 C944.564972,62.0920495 944.744531,61.9206983 944.744531,60.5786391 L944.744531,58.513225 L948.289718,58.513225 Z M950.035177,60.1854514 L951.490812,58.5135316 L952.908504,58.5135316 L951.359544,60.2165016 L952.950088,62.9209368 L951.564782,62.9209368 L950.516939,61.0280238 L950.035177,61.5290439 L950.035177,62.9209368 L948.879829,62.9209368 L948.879829,58.5135316 L950.035177,58.5135316 L950.035177,60.1854514 Z M957.176852,60.7086092 C957.176852,62.297345 956.113104,63.0366084 954.933611,63.0366084 C953.754117,63.0366084 952.681746,62.3082701 952.681746,60.7189592 C952.681746,59.1283067 953.754117,58.39901 954.933611,58.39901 C956.113104,58.39901 957.176852,59.1196816 957.176852,60.7086092 Z M957.551205,58.5135125 L959.540534,58.5135125 C960.524755,58.5135125 961.244715,58.9162069 961.244715,59.6522119 C961.244715,60.1595571 960.883873,60.4859676 960.42434,60.6017351 C960.874866,60.7094525 961.375408,60.9971461 961.375408,61.7178177 C961.375408,62.534515 960.757779,62.9216843 959.759569,62.9216843 L957.551205,62.9216843 L957.551205,58.5135125 Z M966,60.7086092 C966,62.297345 964.937977,63.0366084 963.756759,63.0366084 C962.578798,63.0366084 961.503169,62.3082701 961.503169,60.7189592 C961.503169,59.1283067 962.578798,58.39901 963.756759,58.39901 C964.937977,58.39901 966,59.1196816 966,60.7086092 Z M938.398204,55.8223024 L938.398204,55.8221107 C931.549669,55.8221107 930.356378,51.8532419 930.356378,49.5185342 L934.119067,49.5185342 C934.119067,50.5820998 934.688788,52.5788968 938.11344,52.5788968 C939.981849,52.5788968 942.059138,52.1125686 942.059138,50.1401135 C942.059138,48.661395 940.630714,48.2985675 938.633337,47.8048308 L934.846118,46.8723661 C932.174963,46.2245283 930.641526,44.6388591 930.641526,41.7858813 C930.641526,39.7095421 931.785951,36 937.881948,36 C940.69836,36 942.50449,36.9050562 943.618637,38.1014477 L943.618637,36.4920117 L947.277654,36.4920117 L947.277654,46.6649813 L951.891763,41.3695784 L956.381312,41.3695784 L951.478797,46.766757 L956.512197,55.3302907 L952.126512,55.3302907 L948.804001,49.3370246 L947.277654,50.9173271 L947.273821,55.3302907 L943.618637,55.3302907 L943.618637,54.3267171 C941.80695,55.6498012 939.382617,55.8223024 938.398204,55.8223024 Z M940.889992,44.5890255 C941.871147,44.8358938 942.817041,45.1400709 943.618637,45.6081241 L943.618637,42.0967667 L941.434035,42.0967667 C941.332278,41.2417359 941.019727,39.2420639 937.595459,39.2420639 C936.09115,39.2420639 934.300159,39.8134261 934.300159,41.5006793 C934.300159,42.9772894 935.519895,43.2900916 936.30022,43.4712178 L940.889992,44.5890255 Z M940.639415,60.7086092 C940.639415,61.273263 940.810733,62.0591017 941.703354,62.0591017 C942.596166,62.0591017 942.760012,61.2818881 942.760012,60.7189592 C942.760012,60.1523887 942.596166,59.3749834 941.703354,59.3749834 C940.810733,59.3749834 940.639415,60.1437636 940.639415,60.7086092 Z M962.691286,60.7086092 C962.691286,61.273263 962.865288,62.0591017 963.756759,62.0591017 C964.649379,62.0591017 964.811883,61.2818881 964.811883,60.7189592 C964.811883,60.1523887 964.649571,59.3749834 963.756759,59.3749834 C962.865288,59.3749834 962.691286,60.1437636 962.691286,60.7086092 Z M958.704445,60.2979413 L959.457558,60.2979413 C959.841013,60.2979413 960.112363,60.1444153 960.112363,59.7990296 C960.112363,59.4394605 959.850978,59.3083596 959.466181,59.3083596 L958.704445,59.3083596 L958.704445,60.2979413 Z M958.704445,62.1270289 L959.553948,62.1270289 C959.980712,62.1270289 960.244972,61.9957363 960.244972,61.5602667 C960.244972,61.1753974 959.966723,60.9971461 959.540534,60.9971461 L958.704445,60.9971461 L958.704445,62.1270289 Z M953.870055,60.7086092 C953.870055,61.273263 954.04099,62.0591017 954.933611,62.0591017 C955.822399,62.0591017 955.992185,61.2818881 955.992185,60.7189592 C955.992185,60.1523887 955.822399,59.3749834 954.933611,59.3749834 C954.04099,59.3749834 953.870055,60.1437636 953.870055,60.7086092 Z" id="Combined-Shape-Copy"></path>
            </g>
        </g>
    </g>
</svg>