<svg width="91" height="69" viewBox="0 0 91 69" xmlns="http://www.w3.org/2000/svg"><title>5F20D7AD-1178-467F-9AA6-914BC9D10D9A</title><path d="M10.297 57.951c-.245-.898-.733-2.638-3.298-2.638-1.49 0-3.742 1.066-3.742 5.263 0 2.665 1.126 5.134 3.742 5.134 1.723 0 2.93-1.04 3.298-2.862h3.096c-.614 3.237-2.724 5.488-6.45 5.488-3.95 0-6.778-2.687-6.778-7.803 0-5.203 2.992-7.84 6.817-7.84 4.447 0 6.242 3.07 6.41 5.258h-3.095zm6.885 3.158l3.639-4.18h3.544l-3.868 4.258 3.972 6.76h-3.463l-2.625-4.731-1.2 1.252v3.48h-2.888V56.929h2.889v4.18zm12.242 7.128c-2.945 0-5.63-1.82-5.63-5.794 0-3.977 2.685-5.8 5.63-5.8 2.948 0 5.612 1.802 5.612 5.774s-2.664 5.82-5.612 5.82zM45.89 56.929v11.02H43v-8.701h-3.09v3.398c0 4.214-1.269 5.543-3.298 5.543-.505 0-1.33-.081-1.758-.24v-2.156c.06.043.428.083.855.083.868 0 1.317-.429 1.317-3.784V56.93h8.863zm4.363 4.18l3.64-4.18h3.544l-3.873 4.258 3.977 6.76h-3.464l-2.62-4.731-1.204 1.252v3.48h-2.888V56.929h2.888v4.18zM62.5 68.237c-2.948 0-5.63-1.82-5.63-5.794 0-3.977 2.682-5.8 5.63-5.8 2.95 0 5.608 1.802 5.608 5.774s-2.659 5.82-5.608 5.82zm6.544-11.308h4.974c2.46 0 4.26 1.007 4.26 2.847 0 1.268-.902 2.084-2.05 2.374 1.125.27 2.377.988 2.377 2.79 0 2.042-1.544 3.01-4.04 3.01h-5.52V56.93zm15.514 11.308c-2.945 0-5.634-1.82-5.634-5.794 0-3.977 2.69-5.8 5.634-5.8 2.953 0 5.608 1.802 5.608 5.774s-2.655 5.82-5.608 5.82zM34.212 46.462c-4.53 3.308-10.59 3.74-13.051 3.739-17.122 0-20.105-9.922-20.105-15.76h9.407c0 2.66 1.424 7.652 9.986 7.652 4.67 0 9.864-1.166 9.864-6.097 0-3.697-3.57-4.604-8.564-5.838l-9.468-2.332C5.603 26.206 1.769 22.243 1.769 15.11 1.77 9.92 4.63.646 19.87.646c7.041 0 11.557 2.262 14.342 5.253V1.876h9.147v25.432l11.536-13.239h11.224L53.862 27.562l12.584 21.41H55.482l-8.307-14.984-3.816 3.95-.01 11.033h-9.137v-2.509zM15.916 19.324l11.474 2.794c2.453.617 4.818 1.378 6.822 2.548v-8.779H28.75c-.254-2.137-1.035-7.136-9.596-7.136-3.76 0-8.238 1.428-8.238 5.646 0 3.692 3.05 4.474 5 4.927zm13.508 46.47c2.232 0 2.641-1.944 2.641-3.351 0-1.417-.41-3.36-2.641-3.36-2.232 0-2.66 1.922-2.66 3.334 0 1.412.428 3.376 2.66 3.376zm55.133 0c2.232 0 2.638-1.944 2.638-3.351 0-1.417-.406-3.36-2.638-3.36-2.228 0-2.663 1.922-2.663 3.334 0 1.412.435 3.376 2.663 3.376zm-12.63-4.404h1.882c.959 0 1.637-.383 1.637-1.247 0-.899-.653-1.227-1.615-1.227h-1.905v2.474zm0 4.573h2.123c1.067 0 1.728-.328 1.728-1.417 0-.962-.696-1.408-1.761-1.408h-2.09v2.825zm-9.428-.17c2.222 0 2.647-1.943 2.647-3.35 0-1.417-.425-3.36-2.647-3.36-2.231 0-2.659 1.922-2.659 3.334 0 1.412.428 3.376 2.66 3.376z" fill="#FFF" fill-rule="evenodd"/></svg>