<?xml version="1.0" encoding="utf-8"?>
<!-- Generator: Adobe Illustrator 16.0.0, SVG Export Plug-In . SVG Version: 6.00 Build 0)  -->
<!DOCTYPE svg PUBLIC "-//W3C//DTD SVG 1.1//EN" "http://www.w3.org/Graphics/SVG/1.1/DTD/svg11.dtd">
<svg version="1.1" id="Layer_1" xmlns="http://www.w3.org/2000/svg" xmlns:xlink="http://www.w3.org/1999/xlink" x="0px" y="0px"
	 width="100px" height="23px" viewBox="0 0 791.006 179.618" enable-background="new 0 0 791.006 179.618"
	 xml:space="preserve">
<linearGradient id="SVGID_1_" gradientUnits="userSpaceOnUse" x1="724.3892" y1="163.9858" x2="724.3892" y2="34.1741">
	<stop  offset="0.4667" style="stop-color:#065BAA"/>
	<stop  offset="0.5098" style="stop-color:#1471B9"/>
</linearGradient>
<path fill="url(#SVGID_1_)" d="M781.809,34.426h-57.42v-0.131h-57.421c-5.912,0-8.935,3.022-9.196,8.672V163.85h65.434
	c-16.161-12.614-27.986-22.863-35.738-30.615c-0.789-0.919-1.577-1.84-2.497-2.759c-8.409-9.725-12.746-21.023-12.746-34.031
	c0-10.775,3.022-20.366,8.673-28.907c1.839-2.628,4.204-5.256,6.57-7.884c10.248-10.118,22.469-15.374,36.922-15.374v0.132
	c14.453,0,26.673,5.124,36.921,15.373c2.366,2.497,4.599,5.125,6.439,7.884c5.782,8.41,8.671,18.001,8.671,28.776
	c0,13.14-4.203,24.57-12.612,34.162c-0.921,0.92-1.709,1.84-2.498,2.628c-7.751,7.884-19.709,18.001-35.87,30.615h65.566V43.098
	C790.874,37.317,787.722,34.426,781.809,34.426z"/>
<path fill="#009966" d="M694.298,80.808l29.696,36.396l34.426-47.696l-34.426,26.673L694.298,80.808z"/>
<path fill="#FFFFFF" d="M646.997,51.244V39.55l-26.41,0.525c-0.263,0-1.184-0.131-2.891-0.525c-1.971-0.394-4.205-0.789-7.227-1.183
	c-2.891-0.394-5.78-0.525-8.935-0.657c-10.248-0.132-18.396,2.234-24.439,7.227c-6.044,4.862-9.197,12.746-9.33,23.914
	c0,8.409,1.577,14.584,4.337,18.79c2.628,4.205,5.912,7.095,9.854,8.672c0,0.131-0.656,1.182-1.575,2.89
	c-0.92,1.84-1.84,4.073-2.76,6.307c-1.051,2.234-1.577,3.943-1.577,5.125c0,2.891,0.264,5.387,1.183,7.622
	c0.788,2.233,2.102,3.81,3.679,4.993c-3.152,2.364-5.78,4.468-7.884,6.569c-2.233,2.232-3.809,4.468-4.861,6.964
	c-1.051,2.628-1.708,5.519-1.708,9.064c0,7.228,1.313,12.879,3.679,16.951c2.628,4.072,6.833,7.096,12.614,8.672
	c5.781,1.708,13.271,2.496,22.732,2.496c12.876,0,22.993-2.232,29.958-6.963c6.963-4.599,10.51-12.219,10.774-22.73
	c0-7.096-1.184-12.614-3.549-16.556c-2.234-3.812-5.912-6.57-11.168-7.885c-5.256-1.576-12.09-2.234-20.63-2.102
	c-6.7,0-11.563-0.263-14.847-0.658c-3.022-0.525-5.124-1.182-5.913-2.496c-0.92-1.183-1.314-2.891-1.314-5.255
	c0.133-0.921,0.395-2.103,0.921-3.812c0.394-1.576,1.051-3.153,1.444-4.598c0.657-1.314,0.92-1.971,0.92-1.971
	c1.183,0.131,2.628,0.393,4.599,0.393c1.972,0.132,3.417,0.264,4.336,0.264c7.884,0,14.454-0.789,19.71-2.759
	c5.256-1.708,9.066-4.862,11.694-9.461c2.628-4.467,3.941-10.643,3.941-18.526c0-4.599-0.526-8.41-1.577-11.168
	c-1.051-2.628-2.495-4.862-4.072-6.439H646.997z M601.404,49.536c5.124,0,9.328,0.526,12.35,1.577
	c3.286,1.051,5.52,3.022,6.833,5.913c1.445,2.628,2.102,6.57,2.102,11.826c0,7.095-1.707,12.088-4.992,14.848
	c-3.548,3.022-9.198,4.336-16.688,4.205c-7.357,0-12.482-1.446-15.504-4.599c-2.891-3.022-4.205-7.884-4.205-14.454
	c0-7.096,1.709-12.088,5.124-15.11C589.709,50.85,594.702,49.536,601.404,49.536z M630.179,134.812
	c1.313,2.103,2.103,5.519,2.103,10.117c0,5.913-2.103,10.248-6.439,12.877c-4.335,2.627-11.037,3.941-20.235,3.941
	c-6.569,0-11.825-0.525-15.768-1.577c-3.679-1.184-6.307-3.021-7.751-5.386c-1.446-2.498-2.103-5.914-2.103-10.118
	c0-3.417,0.656-6.308,2.233-8.409c1.576-2.366,4.204-4.862,7.884-7.622c0.132,0,1.446,0.132,3.679,0.264
	c2.366,0.132,5.125,0.263,8.146,0.395c3.022,0.263,5.65,0.395,7.884,0.395c5.519-0.132,9.855,0.131,13.14,0.788
	C626.237,131.133,628.602,132.578,630.179,134.812z"/>
<path fill="#F6861F" d="M658.296,166.347c0.788,3.809,3.681,5.779,8.672,5.779h57.421v0.133h57.42c4.992,0,7.884-1.839,8.671-5.781
	h-66.091v-0.131H658.296z"/>
<path fill="#FFFFFF" d="M353.592,49.273c-6.044-7.752-16.03-11.563-29.563-11.563c-9.592,0-17.082,1.708-22.863,4.993
	c-5.782,3.285-9.986,8.41-12.482,15.11c-2.628,6.833-3.811,15.505-3.811,25.885c0,11.168,1.052,20.366,3.285,27.461
	c2.366,7.227,6.439,12.483,12.089,15.9c5.65,3.547,13.534,5.256,23.783,5.256c10.117,0,18-1.84,23.651-5.521
	c5.649-3.678,9.591-9.064,11.825-16.161c2.234-7.226,3.285-16.03,3.285-26.542C362.79,68.589,359.899,57.026,353.592,49.273z
	 M308.918,53.215c3.547-2.102,8.672-3.153,15.11-3.022c8.672-0.263,14.979,2.365,18.789,7.752
	c3.941,5.388,5.913,14.191,5.913,26.148c0,8.015-0.394,14.716-1.707,19.972c-1.184,5.388-3.549,9.46-7.227,12.089
	c-3.417,2.759-8.804,4.072-15.768,4.072c-7.095,0-12.482-1.313-16.162-3.81c-3.547-2.497-6.043-6.438-7.227-11.826
	c-1.314-5.387-1.839-12.351-1.708-20.891c-0.131-8.147,0.789-14.848,2.234-19.709C302.611,58.997,305.239,55.449,308.918,53.215z"/>
<path fill="#F6F5F5" d="M275.544,110.635c2.102-7.226,3.285-16.03,3.153-26.542c0.263-15.504-2.891-27.067-9.066-34.82
	c-6.044-7.752-15.899-11.563-29.564-11.563c-9.592,0-17.213,1.708-22.863,4.993c-5.913,3.285-9.985,8.41-12.613,15.11
	c-2.498,6.833-3.812,15.505-3.679,25.885c-0.132,11.168,1.051,20.366,3.284,27.461c2.366,7.227,6.438,12.483,12.089,15.9
	c5.649,3.547,13.533,5.256,23.783,5.256c10.117,0,18-1.84,23.782-5.521C269.368,123.118,273.179,117.731,275.544,110.635z
	 M258.988,57.945c3.811,5.388,5.781,14.191,5.65,26.148c0.263,8.015-0.262,14.716-1.576,19.972
	c-1.183,5.388-3.548,9.46-7.096,12.089c-3.547,2.759-8.803,4.072-15.898,4.072c-7.096,0-12.483-1.313-16.162-3.81
	c-3.547-2.497-6.044-6.438-7.227-11.826c-1.314-5.387-1.839-12.351-1.707-20.891c0-8.147,0.656-14.848,2.233-19.709
	c1.445-4.993,4.073-8.541,7.752-10.774c3.547-2.102,8.672-3.153,15.111-3.022C248.739,49.93,255.046,52.558,258.988,57.945z"/>
<path fill="#FFFFFF" d="M183.699,55.055c2.891-4.599,4.336-11.3,4.468-19.709c-0.132-11.038-3.417-19.052-9.855-23.914
	c-6.569-4.993-15.767-7.49-27.593-7.358h-45.595v126.403h47.959c7.884,0,14.717-0.92,20.629-3.285
	c5.781-2.234,10.117-6.044,13.271-11.169c3.284-5.256,4.73-12.22,4.862-21.154c-0.131-5.913-0.92-10.905-2.759-14.847
	c-1.577-3.942-3.942-6.833-6.833-9.198c-3.022-2.234-6.438-4.205-10.118-5.388C177.129,63.201,181.071,59.654,183.699,55.055z
	 M173.713,37.054c0,7.621-1.84,13.403-5.256,17.213c-3.417,3.811-9.198,5.781-17.082,5.781h-32.323V16.951h31.141
	c7.883,0,13.796,1.445,17.738,4.599C171.873,24.834,173.713,29.958,173.713,37.054z M162.544,74.107
	c3.942,0.788,7.357,2.759,10.38,5.913c2.891,3.021,4.467,7.752,4.599,14.19c0,8.671-2.366,14.847-6.964,18.395
	c-4.336,3.416-10.38,5.256-18.001,5.125h-33.506V72.793h32.455C154.792,72.531,158.603,73.056,162.544,74.107z"/>
<path fill="#FFFFFF" d="M224.168,151.63c-1.182,0.263-2.365,0.526-3.416,1.052c-0.92,0.525-1.708,0.788-2.365,1.182l-0.92,0.657
	v-2.496h-2.891v19.053h2.891v-13.929l0.92-0.395c0.657-0.396,1.445-0.787,2.497-1.184c0.919-0.394,2.103-0.786,3.285-1.05V151.63z"
	/>
<path fill="#FFFFFF" d="M192.239,151.63c-1.577,0-3.153,0.263-4.205,0.92c-1.182,0.657-2.234,1.708-2.891,3.285
	c-0.657,1.445-0.919,3.417-0.919,5.779c0,2.235,0.131,4.074,0.657,5.521c0.525,1.574,1.314,2.628,2.497,3.284
	c1.051,0.657,2.628,1.05,4.467,1.05c0.789,0,1.577,0,2.364-0.132c0.921,0,1.709,0,2.628-0.13c0.657-0.131,1.314-0.131,1.709-0.131
	l0.657-0.133v-2.364l-0.789,0.13c-0.394,0-0.92,0-1.578,0c-0.787,0.132-1.576,0.132-2.364,0.132c-0.92,0-1.578,0.133-2.234,0.133
	c-1.972,0-3.286-0.525-3.942-1.578c-0.788-1.05-1.314-2.627-1.314-4.599h12.876l0.132-2.232c0-3.153-0.657-5.389-1.971-6.835
	C196.707,152.287,194.867,151.63,192.239,151.63z M195.918,155.571c0.789,0.921,1.051,2.628,1.051,4.862h-9.986
	c0-2.234,0.526-3.941,1.445-4.862c0.92-1.05,2.234-1.444,3.811-1.444C193.948,154.126,195.13,154.521,195.918,155.571z"/>
<path fill="#FFFFFF" d="M159.917,152.418h-3.154l-4.599,16.162h-0.525l-3.811-16.556h-2.891l4.468,19.053h4.729l4.205-14.979
	l3.942,14.979h4.862l4.599-19.053h-2.891l-3.811,16.556h-0.657L159.917,152.418z"/>
<path fill="#FFFFFF" d="M354.512,151.63c-1.182,0.263-2.365,0.526-3.285,1.052c-1.051,0.525-1.84,0.788-2.497,1.182l-0.788,0.657
	v-2.496h-2.89v19.053h2.89v-13.929l0.788-0.395c0.657-0.396,1.578-0.787,2.497-1.184c1.051-0.394,2.103-0.786,3.285-1.05V151.63z"/>
<path fill="#FFFFFF" d="M316.539,152.025h-2.759v9.985c0,2.365,0.131,4.204,0.526,5.649c0.262,1.315,0.919,2.366,1.971,3.022
	c0.788,0.526,2.233,0.788,4.073,0.788c0.788,0,1.708-0.132,2.497-0.393c0.788-0.265,1.577-0.396,2.233-0.657l0.789-0.395v1.052
	h2.891v-19.053h-2.891v15.503l-0.789,0.396c-0.394,0.13-1.051,0.393-1.971,0.656c-0.789,0.262-1.577,0.395-2.365,0.395
	c-1.183,0-2.234-0.265-2.76-0.658c-0.525-0.393-0.92-1.181-1.051-2.234c-0.263-1.051-0.395-2.363-0.395-4.072V152.025z"/>
<path fill="#FFFFFF" d="M291.18,151.63c-1.971,0-3.679,0.263-4.862,1.052c-1.314,0.788-2.102,1.839-2.628,3.153
	c-0.525,1.445-0.788,3.284-0.788,5.519c0,2.232,0.263,4.203,0.657,5.649c0.526,1.577,1.314,2.761,2.628,3.417
	c1.183,0.657,2.759,1.05,4.993,1.05c2.233,0,3.811-0.393,4.993-1.05c1.182-0.789,1.971-1.971,2.496-3.55
	c0.526-1.444,0.657-3.416,0.657-5.517c0-3.285-0.657-5.783-1.971-7.357C296.041,152.418,294.07,151.63,291.18,151.63z
	 M296.041,165.557c-0.262,1.184-0.788,1.971-1.576,2.497c-0.657,0.656-1.839,0.921-3.285,0.921c-1.577,0-2.628-0.265-3.416-0.921
	c-0.789-0.526-1.314-1.313-1.577-2.365c-0.262-1.051-0.262-2.628-0.262-4.335c0-1.84,0.131-3.285,0.394-4.205
	c0.395-1.051,0.92-1.708,1.708-2.234c0.788-0.394,1.839-0.788,3.153-0.788c1.708,0,3.154,0.658,4.074,1.709
	c0.788,1.181,1.182,3.021,1.182,5.519C296.436,162.929,296.173,164.375,296.041,165.557z"/>
<path fill="#FFFFFF" d="M270.551,152.025h-2.891l-4.73,16.292h-1.314l-4.862-16.292h-2.759l5.387,19.053h2.891l-2.497,8.54h2.759
	L270.551,152.025z"/>
<path fill="#FFFFFF" d="M522.04,50.325c5.388-0.131,9.593,0.919,12.221,3.153c2.891,2.234,4.6,5.65,5.649,10.512
	c0.92,4.862,1.313,11.432,1.313,19.315v47.171h13.402V83.174c0.133-11.037-0.656-19.841-2.364-26.411
	c-1.577-6.701-4.599-11.563-9.066-14.585c-4.6-3.022-10.906-4.467-19.053-4.467c-4.336,0.263-8.803,0.92-13.14,2.102
	c-4.203,1.183-7.883,2.497-10.643,3.679c-2.758,1.314-4.204,1.971-4.335,2.103V39.55h-13.666v90.926h13.666v-73.45
	c0.131-0.131,1.444-0.657,4.072-1.84c2.628-1.051,5.913-2.102,9.855-3.022C513.893,50.982,517.836,50.457,522.04,50.325z"/>
<path fill="#FFFFFF" d="M468.957,19.052V3.285h-13.534v15.767H468.957z"/>
<path fill="#FFFFFF" d="M442.941,39.55H427.83l-27.198,35.871l-13.928,0.788V0h-13.665v130.476h13.665V89.612l14.19-0.788
	l27.33,41.652h15.373l-30.878-49.142L442.941,39.55z"/>
<path fill="#FFFFFF" d="M453.453,151.63c-1.314,0.263-2.365,0.526-3.286,1.052c-1.051,0.525-1.97,0.788-2.495,1.182l-0.789,0.657
	v-2.496h-2.891v19.053h2.891v-13.929l0.789-0.395c0.656-0.396,1.576-0.787,2.495-1.184c1.052-0.394,2.104-0.786,3.286-1.05V151.63z"
	/>
<path fill="#FFFFFF" d="M421.655,151.63c-1.709,0-3.153,0.263-4.337,0.92c-1.313,0.657-2.233,1.708-2.891,3.285
	c-0.656,1.445-0.919,3.417-0.919,5.779c0,2.235,0.263,4.074,0.788,5.521c0.394,1.574,1.183,2.628,2.365,3.284
	c1.051,0.657,2.628,1.05,4.599,1.05c0.657,0,1.446,0,2.364-0.132c0.789,0,1.577,0,2.498-0.13c0.656-0.131,1.313-0.131,1.707-0.131
	l0.657-0.133v-2.364l-0.657,0.13c-0.394,0-1.051,0-1.707,0c-0.788,0.132-1.577,0.132-2.365,0.132c-0.789,0-1.577,0.133-2.234,0.133
	c-1.84,0-3.154-0.525-3.942-1.578c-0.786-1.05-1.182-2.627-1.182-4.599h12.745l0.132-2.232c0-3.153-0.657-5.389-2.103-6.835
	C425.991,152.287,424.151,151.63,421.655,151.63z M421.655,154.126c1.576,0,2.891,0.395,3.547,1.444
	c0.789,0.921,1.184,2.628,1.184,4.862h-9.986c0-2.234,0.525-3.941,1.313-4.862C418.632,154.521,419.946,154.126,421.655,154.126z"/>
<path fill="#FFFFFF" d="M396.953,152.025c-0.657-0.132-1.446-0.264-2.234-0.395c-0.788,0-1.576,0-2.365,0
	c-1.182,0-2.234,0.131-3.285,0.526c-1.052,0.394-1.97,0.918-2.628,1.707c-0.657,0.921-0.919,1.972-0.919,3.285
	c0,1.314,0.263,2.233,0.657,2.892c0.525,0.786,1.313,1.313,2.234,1.574c1.051,0.396,2.365,0.79,3.941,1.054
	c1.183,0.13,2.234,0.261,2.891,0.656c0.657,0.13,1.183,0.395,1.446,0.788c0.263,0.396,0.394,0.787,0.394,1.576
	c0,1.182-0.394,2.104-1.183,2.496c-0.919,0.525-2.102,0.79-3.547,0.79c-0.657,0-1.182-0.133-1.839-0.133
	c-0.789-0.132-1.446-0.132-2.103-0.132c-0.657-0.13-1.313-0.13-1.708-0.261c-0.525-0.133-0.657-0.133-0.788-0.133l-0.131,2.496
	l0.657,0.132c0.525,0.133,1.051,0.133,1.708,0.133c0.788,0.261,1.576,0.261,2.234,0.261c0.788,0.132,1.576,0.132,2.103,0.132
	c1.576,0,2.89-0.132,4.073-0.525c1.051-0.263,1.97-0.919,2.497-1.839c0.525-0.921,0.918-2.103,0.918-3.549
	c0-1.182-0.13-2.232-0.656-2.889c-0.394-0.658-1.181-1.314-2.102-1.71c-1.182-0.393-2.497-0.788-4.204-0.918
	c-1.183-0.265-2.234-0.526-2.892-0.658c-0.657-0.263-1.051-0.525-1.313-0.919c-0.263-0.395-0.394-0.79-0.394-1.314
	c0-1.182,0.394-1.972,1.182-2.364c0.789-0.396,1.84-0.658,3.022-0.658c0.657,0,1.314,0.132,2.103,0.132
	c0.657,0.131,1.446,0.263,2.234,0.263c0.657,0,1.183,0.132,1.708,0.264h0.657v-2.498l-0.657-0.13
	C398.266,152.157,397.609,152.157,396.953,152.025z"/>
<path fill="#FFFFFF" d="M546.742,151.63c-1.707,0-3.151,0.263-4.335,0.92s-2.102,1.708-2.76,3.285
	c-0.656,1.445-1.052,3.417-1.052,5.779c0,2.235,0.265,4.074,0.657,5.521c0.526,1.574,1.314,2.628,2.497,3.284
	c1.051,0.657,2.628,1.05,4.6,1.05c0.656,0,1.444,0,2.364-0.132c0.92,0,1.708,0,2.498-0.13c0.786-0.131,1.313-0.131,1.838-0.131
	l0.657-0.133l-0.132-2.364l-0.656,0.13c-0.526,0-0.921,0-1.707,0c-0.79,0.132-1.447,0.132-2.234,0.132
	c-0.921,0-1.577,0.133-2.365,0.133c-1.84,0-3.154-0.525-3.812-1.578c-0.92-1.05-1.314-2.627-1.314-4.599h12.877v-2.232
	c0-3.153-0.656-5.389-1.971-6.835C551.079,152.287,549.24,151.63,546.742,151.63z M542.933,155.571
	c0.918-1.05,2.102-1.444,3.809-1.444c1.577,0,2.892,0.395,3.68,1.444c0.657,0.921,1.052,2.628,1.052,4.862h-9.987
	C541.486,158.199,542.012,156.492,542.933,155.571z"/>
<path fill="#FFFFFF" d="M525.456,152.157h-0.656c-0.262-0.132-0.657-0.264-1.313-0.264c-0.525,0-1.052-0.132-1.709-0.263
	c-0.656,0-1.05,0-1.444,0c-1.84,0-3.417,0.263-4.6,0.92s-2.102,1.708-2.627,3.152c-0.525,1.446-0.79,3.154-0.79,5.389
	c0,2.628,0.265,4.598,0.658,6.175c0.525,1.444,1.313,2.628,2.497,3.284c1.183,0.658,2.759,0.92,4.729,0.92
	c0.527,0,0.921,0,1.577-0.132c0.657,0,1.184,0,1.709-0.13c0.656-0.131,1.182-0.131,1.576-0.131c0.394,0,0.526,0,0.526-0.133
	l-0.133-2.364c0,0-0.394,0-0.788,0c-0.525,0.13-1.182,0.13-1.97,0.13c-0.658,0.132-1.184,0.132-1.84,0.132
	c-1.576,0-2.76-0.262-3.547-0.788c-0.789-0.526-1.313-1.313-1.578-2.365c-0.262-1.051-0.524-2.628-0.394-4.598
	c0-1.577,0.132-2.893,0.394-3.942c0.395-0.92,0.921-1.708,1.839-2.234c0.658-0.394,1.84-0.656,3.286-0.656
	c0.656,0,1.182,0,1.84,0.131c0.788,0.132,1.444,0.132,1.97,0.132l0.788,0.264V152.157z"/>
<path fill="#FFFFFF" d="M497.864,152.025h-3.022v19.053h3.022V152.025z"/>
<path fill="#FFFFFF" d="M497.864,144.273h-3.022v3.284h3.022V144.273z"/>
<path fill="#FFFFFF" d="M481.439,152.025h-3.021l-4.729,16.686h-1.447l-4.598-16.686h-3.022l5.519,19.053h5.65L481.439,152.025z"/>
<path fill="#FFFFFF" d="M468.957,130.476V39.55h-13.534v90.926H468.957z"/>
<path fill="#1471B9" d="M91.722,7.753c-0.131,0-1.445-0.263-3.942-0.789c-2.628-0.525-5.912-1.052-10.118-1.708
	c-4.204-0.788-8.804-1.314-13.796-1.839c-4.862-0.394-9.723-0.657-14.585-0.789c-12.351,0-21.943,2.497-29.169,7.096
	c-7.227,4.73-12.483,11.826-15.505,21.286c-3.153,9.723-4.73,21.812-4.599,36.528c-0.131,13.928,1.314,25.622,4.467,35.345
	c2.759,9.724,7.884,16.95,15.374,22.074c7.227,4.862,17.344,7.49,30.221,7.49c4.073,0,8.409-0.131,13.008-0.657
	c4.862-0.395,9.329-0.92,13.796-1.444c4.206-0.657,7.752-1.052,10.512-1.446c2.759-0.394,4.205-0.525,4.336-0.525V64.778h-40.47
	v18.921h19.184v26.936c0,0-0.92,0-2.892,0.131c-1.839,0.263-4.335,0.525-7.095,0.525c-2.759,0.264-5.781,0.525-8.672,0.525
	c-8.146,0-14.453-1.313-18.789-4.335c-4.205-2.892-7.227-7.621-8.804-14.191c-1.577-6.438-2.365-15.111-2.102-25.753
	c-0.131-11.168,0.788-19.841,2.497-26.279c1.839-6.439,4.861-11.038,9.329-13.797c4.336-2.759,10.512-4.205,18.526-4.073
	c4.073,0,8.541,0.132,13.008,0.394c4.468,0.395,8.671,0.657,12.483,1.051c3.942,0.394,7.095,0.657,9.459,1.051
	c2.366,0.263,3.68,0.394,3.68,0.394L91.722,7.753z"/>
<path fill="#FFFFFF" d="M22.214,151.63c-1.576,0-2.89,0.263-4.204,0.92c-1.183,0.657-2.103,1.708-2.759,3.285
	c-0.657,1.445-0.92,3.417-0.92,5.779c0,2.235,0.132,4.074,0.657,5.521c0.395,1.574,1.314,2.628,2.365,3.284
	c1.183,0.657,2.628,1.05,4.467,1.05c0.789,0,1.708,0,2.497-0.132c0.789,0,1.708,0,2.497-0.13c0.657-0.131,1.314-0.131,1.84-0.131
	l0.657-0.133l-0.132-2.364l-0.657,0.13c-0.395,0-1.052,0-1.708,0c-0.657,0.132-1.445,0.132-2.365,0.132
	c-0.657,0-1.577,0.133-2.234,0.133c-1.839,0-3.153-0.525-3.942-1.578c-0.657-1.05-1.051-2.627-1.051-4.599h12.746v-2.232
	c0-3.153-0.657-5.389-1.971-6.835C26.813,152.287,24.842,151.63,22.214,151.63z M26.025,155.571
	c0.788,0.921,1.051,2.628,1.051,4.862h-9.854c0-2.234,0.394-3.941,1.314-4.862c0.92-1.05,2.103-1.444,3.679-1.444
	C23.922,154.126,25.105,154.521,26.025,155.571z"/>
<path fill="#FFFFFF" d="M116.03,161.354c0,2.232,0.131,4.203,0.657,5.649c0.395,1.577,1.314,2.761,2.628,3.417
	c1.183,0.657,2.759,1.05,4.862,1.05c2.234,0,3.81-0.393,4.993-1.05c1.314-0.789,1.971-1.971,2.497-3.55
	c0.525-1.444,0.788-3.416,0.788-5.517c0-3.285-0.657-5.783-1.971-7.357c-1.314-1.578-3.416-2.366-6.307-2.366
	c-1.971,0-3.548,0.263-4.862,1.052c-1.183,0.788-1.971,1.839-2.628,3.153C116.293,157.281,116.03,159.12,116.03,161.354z
	 M119.315,157.149c0.263-1.051,0.92-1.708,1.708-2.234c0.789-0.394,1.84-0.788,3.154-0.788c1.839,0,3.153,0.658,3.942,1.709
	c0.92,1.181,1.314,3.021,1.314,5.519c0,1.575-0.132,3.021-0.263,4.203c-0.394,1.184-0.788,1.971-1.708,2.497
	c-0.657,0.656-1.708,0.921-3.285,0.921c-1.446,0-2.628-0.265-3.285-0.921c-0.92-0.526-1.314-1.313-1.577-2.365
	c-0.394-1.051-0.394-2.628-0.394-4.335C118.921,159.514,119.052,158.069,119.315,157.149z"/>
<path fill="#FFFFFF" d="M101.839,167.397c0.525-1.575,0.789-3.678,0.789-6.043c0-3.548-0.525-5.913-1.708-7.49
	c-1.052-1.445-2.759-2.233-5.256-2.233c-1.051,0-1.84,0.131-2.628,0.526c-0.92,0.13-1.708,0.394-2.103,0.656l-0.92,0.525v-1.313
	h-2.89v27.593h2.89v-8.54c0.131,0,0.395,0,0.92,0.131c0.394,0.13,0.919,0.13,1.446,0.13c0.657,0.132,1.314,0.132,1.839,0.132
	c2.103,0,3.679-0.262,4.73-0.92C100.263,169.894,101.182,168.842,101.839,167.397z M99.737,161.354c0,2.628-0.394,4.599-1.183,5.912
	c-0.919,1.184-2.365,1.709-4.335,1.709c-0.657,0-1.183-0.133-1.839-0.133c-0.526,0-1.052,0-1.446-0.132c-0.525,0-0.789,0-0.92-0.13
	v-12.878l0.92-0.262c0.394-0.264,1.051-0.656,1.971-0.92c0.789-0.132,1.576-0.263,2.365-0.395c1.052,0,1.708,0.395,2.365,0.788
	c0.657,0.526,1.183,1.184,1.577,2.234C99.606,158.199,99.737,159.514,99.737,161.354z"/>
<path fill="#FFFFFF" d="M53.224,151.63c-0.263,0-0.657,0.131-1.051,0.263c-0.788,0-1.577,0-2.234,0.264
	c-0.657,0.394-1.314,0.525-1.839,0.656l-0.657,0.525v-1.313h-2.891v19.053h2.891v-15.375c0-0.132,0.263-0.262,0.788-0.393
	c0.394-0.133,1.051-0.525,1.84-0.789c0.92-0.132,1.708-0.263,2.496-0.395c1.183,0,1.971,0.395,2.628,0.788
	c0.525,0.526,0.92,1.184,1.183,2.234c0.131,0.92,0.131,2.365,0.131,4.205v9.724h3.022v-9.986c0-1.051,0-2.234-0.131-3.285
	c-0.132-0.92-0.263-1.708-0.395-2.104c0-0.132,0.263-0.262,0.789-0.393c0.525-0.265,1.182-0.525,1.971-0.789
	c0.92-0.132,1.708-0.263,2.628-0.395c1.183,0,1.97,0.395,2.628,0.788c0.525,0.526,0.92,1.314,1.183,2.498
	c0.131,1.182,0.131,2.758,0.131,4.598v9.067h2.891v-9.986c0-2.234-0.263-4.205-0.526-5.521c-0.395-1.444-1.051-2.496-1.971-3.021
	c-0.92-0.657-2.234-0.92-3.942-0.92c-0.92,0-1.708,0.131-2.628,0.395c-1.051,0.132-1.84,0.394-2.497,0.657
	c-0.788,0.261-1.314,0.525-1.839,0.656c-0.262-0.525-0.789-0.788-1.445-1.182c-0.525-0.264-1.314-0.396-2.102-0.526
	C54.012,151.63,53.749,151.63,53.224,151.63z"/>
</svg>
