<svg width="43" height="36" viewBox="0 0 43 36" xmlns="http://www.w3.org/2000/svg"><title>F0E3BD41-45EC-4AA3-A8C3-5808818F905C</title><path d="M36.792 17.856c-3.23 3.587-12.106 10.986-15.293 13.612-3.187-2.625-12.062-10.024-15.29-13.612-3.168-3.52-3.198-8.535-.07-11.664a8.172 8.172 0 0 1 5.795-2.396c2.099 0 4.198.798 5.795 2.396l2.387 2.387c.284.284.643.454 1.018.513.61.131 1.273-.039 1.748-.512l2.387-2.388c3.197-3.195 8.396-3.194 11.59 0 3.13 3.129 3.1 8.143-.067 11.664m2.754-14.35c-4.678-4.674-12.285-4.674-16.96 0l-1.087 1.086-1.085-1.085C15.74-1.17 8.13-1.17 3.455 3.507c-4.58 4.58-4.61 11.84-.069 16.889 4.142 4.602 16.358 14.546 16.876 14.967.352.286.775.425 1.196.425h.04c.436.02.875-.13 1.238-.425.518-.421 12.735-10.365 16.878-14.968 4.541-5.047 4.51-12.308-.068-16.888" fill="#A7BC37" fill-rule="evenodd"/></svg>