<svg width="96" height="91" viewBox="0 0 96 91" xmlns="http://www.w3.org/2000/svg"><title>C4350280-E31A-4AC0-9925-A6F02839C828</title><path d="M91.2 52.62H4.8V9.566c0-2.642 2.149-4.783 4.8-4.783h76.8c2.651 0 4.8 2.141 4.8 4.783V52.62zm0 14.35c0 2.642-2.149 4.784-4.8 4.784H9.6c-2.651 0-4.8-2.142-4.8-4.784v-9.567h86.4v9.567zM36.833 86.104l1.6-9.567h19.135l1.598 9.567H36.833zM86.4 0C91.694 0 96 4.293 96 9.567V66.97c0 5.275-4.306 9.567-9.6 9.567H62.432l1.6 9.567H69.6c1.326 0 2.4 1.07 2.4 2.392a2.395 2.395 0 0 1-2.4 2.392H26.4c-1.326 0-2.4-1.07-2.4-2.392a2.395 2.395 0 0 1 2.4-2.392h5.566l1.6-9.567H9.6c-5.293 0-9.6-4.292-9.6-9.567V9.567C0 4.293 4.307 0 9.6 0h76.8zM54.625 62.888h-14.25c-1.313 0-2.375 1.118-2.375 2.5s1.062 2.5 2.375 2.5h14.25c1.312 0 2.375-1.118 2.375-2.5s-1.063-2.5-2.375-2.5z" fill="#A7BC37" fill-rule="evenodd"/></svg>