<svg width="78" height="92" viewBox="0 0 78 92" xmlns="http://www.w3.org/2000/svg"><title>41CA5B86-BB8E-4CAD-A24E-E754E36401B9</title><path d="M42.674 45.272c0 15.59 10.078 29.053 24.407 33.856-6.298 4.015-13.62 6.22-21.178 6.22-21.732 0-39.368-17.716-39.368-39.367 0-21.652 17.715-39.367 39.368-39.367 7.006 0 13.856 1.89 19.84 5.354-13.7 5.039-23.07 18.108-23.07 33.304m31.1-28.817c1.261-.157 2.284-1.102 2.599-2.362.315-1.18-.079-2.52-1.024-3.306A45.688 45.688 0 0 0 45.903 0C20.628 0 0 20.55 0 45.902s20.55 45.902 45.903 45.902c11.337 0 22.28-4.252 30.784-11.889.945-.866 1.26-2.205.945-3.386-.315-1.18-1.417-2.047-2.677-2.204C60.31 72.593 49.209 60.153 49.209 45.35 49.13 30.785 59.523 18.66 73.774 16.455" fill="#A7BC37" fill-rule="evenodd"/></svg>