<svg width="41" height="28" viewBox="0 0 41 28" xmlns="http://www.w3.org/2000/svg"><title>9967F2A7-665A-47CA-A1A5-BD54D2CC7028</title><path d="M38.288 6.846l-35.576.002V4.901c0-1.207.982-2.19 2.19-2.19h31.197c1.207 0 2.19.983 2.19 2.19v1.945zm0 15.68c0 1.207-.982 2.189-2.189 2.189H4.901a2.192 2.192 0 0 1-2.19-2.19v-11.81h35.577v11.81zM4.901 0H36.1A4.906 4.906 0 0 1 41 4.901v17.625a4.907 4.907 0 0 1-4.901 4.9H4.901A4.907 4.907 0 0 1 0 22.527V4.9A4.907 4.907 0 0 1 4.901 0zm8.6 22.2a.481.481 0 0 0 .482-.481v-1.465a.481.481 0 0 0-.482-.481H6.077a.481.481 0 0 0-.481.481v1.465c0 .265.215.48.481.48h7.424zm18.852 0a2.307 2.307 0 0 0 2.307-2.307v-2.209a2.307 2.307 0 0 0-2.307-2.307h-2.208a2.307 2.307 0 0 0-2.308 2.307v2.209a2.307 2.307 0 0 0 2.308 2.307h2.208z" fill="#FFF" fill-rule="evenodd"/></svg>