<svg width="84" height="31" viewBox="0 0 84 31" xmlns="http://www.w3.org/2000/svg"><title>244AE9DE-B581-41BE-8CD2-57A6D99F9EAC</title><g fill="none" fill-rule="evenodd"><path fill="#F00" d="M6.739 30.584v-9.85L.159 3.072h3.308l4.85 13.621L13.894.225h3.04L9.778 20.85v9.735z"/><path d="M82.77 11.191l-3.617 9.08 4.041 10.313h-3.118l-3-8.004-2.924 8.004h-2.964l4.04-10.043-3.655-9.35h3.116l2.501 7.041 2.656-7.041h2.925zm-18.392 2.193c-.923 0-1.578.52-1.963 1.559-.384 1.038-.628 2.43-.731 4.174h4.965c0-.82-.039-1.583-.116-2.289A9.342 9.342 0 0 0 66.168 15c-.167-.513-.399-.91-.694-1.193a1.524 1.524 0 0 0-1.096-.423zm5.272 15.891a7.564 7.564 0 0 1-2.059 1.155c-.756.282-1.623.423-2.598.423-2 0-3.577-.776-4.733-2.328-1.154-1.552-1.731-3.828-1.731-6.83 0-1.564.109-3 .328-4.31.217-1.307.563-2.442 1.039-3.404.473-.962 1.083-1.713 1.828-2.251.742-.539 1.627-.808 2.654-.808.795 0 1.526.16 2.194.48.667.322 1.23.84 1.693 1.559.46.718.82 1.648 1.077 2.79.256 1.141.385 2.533.385 4.174v1.655h-8.081c0 2.206.302 3.873.905 5.002.603 1.13 1.506 1.693 2.711 1.693.847 0 1.58-.147 2.195-.442.614-.295 1.116-.584 1.5-.866l.693 2.308zM52.526 14.312a3.273 3.273 0 0 0-.98-.696c-.346-.154-.776-.232-1.29-.232a2.24 2.24 0 0 0-1.596.638c-.45.427-.821.993-1.115 1.702-.295.71-.513 1.522-.654 2.437a18.9 18.9 0 0 0-.213 2.881c0 2.295.23 4.094.693 5.396.462 1.302 1.244 1.952 2.347 1.952.743 0 1.333-.155 1.77-.463a3.98 3.98 0 0 0 1.038-1.045v-12.57zm-3.154 16.541c-1.925 0-3.386-.782-4.387-2.347-1-1.565-1.5-3.86-1.5-6.888 0-3.59.608-6.271 1.827-8.041 1.218-1.77 2.802-2.655 4.752-2.655.463 0 .918.07 1.367.211.449.141.813.315 1.095.52v-8.58h3.003v27.51h-2.232l-.23-1.538h-.194a5.71 5.71 0 0 1-1.48 1.308c-.553.333-1.227.5-2.02.5zm-16.737-.27h-3.003v-19.43h3.003v1.693h.19c.13-.18.315-.385.56-.616a4.51 4.51 0 0 1 .866-.635 5.614 5.614 0 0 1 1.096-.48 4.166 4.166 0 0 1 1.29-.193c2.59 0 3.885 1.462 3.885 4.386v15.276h-3.04V15.577c0-.743-.154-1.256-.462-1.539-.308-.282-.757-.423-1.346-.423-.642 0-1.22.199-1.732.597-.513.397-.948.84-1.307 1.327v15.045zm-9.697-10.119h-.347c-.922 0-1.68.097-2.27.292-.59.193-1.052.479-1.385.855a3.091 3.091 0 0 0-.692 1.34 7.057 7.057 0 0 0-.193 1.71c0 1.14.186 2.046.559 2.72.37.673.942 1.01 1.71 1.01.515 0 1.008-.15 1.483-.447a3.604 3.604 0 0 0 1.135-1.108v-6.372zm2.963 5.733c0 .924.037 1.77.114 2.54.078.77.155 1.385.231 1.847h-2.54a11.58 11.58 0 0 1-.152-.731 9.747 9.747 0 0 1-.117-.808h-.19a5.576 5.576 0 0 1-1.503 1.308c-.564.333-1.268.5-2.115.5-1.385 0-2.508-.5-3.368-1.5-.858-1.001-1.289-2.463-1.289-4.387 0-1.026.143-1.962.425-2.809a5.17 5.17 0 0 1 1.326-2.135c.604-.578 1.379-1.026 2.33-1.347.947-.32 2.103-.481 3.462-.481h.423V17.03c0-1.292-.212-2.223-.635-2.792-.424-.568-1.058-.854-1.904-.854-.77 0-1.476.178-2.118.531a9.93 9.93 0 0 0-1.73 1.2l-.577-2.654c.435-.36 1.07-.706 1.903-1.04a7.237 7.237 0 0 1 2.713-.5c.847 0 1.603.103 2.27.309a3.805 3.805 0 0 1 1.675 1.02c.449.475.789 1.102 1.02 1.885.23.782.346 1.763.346 2.943v9.12z" fill="#000"/></g></svg>