<svg width="43" height="43" viewBox="0 0 43 43" xmlns="http://www.w3.org/2000/svg"><title>D94C47CE-1530-4B9B-A452-B393BE66763C</title><path d="M21.5 0C33.355 0 43 9.645 43 21.5a21.28 21.28 0 0 1-3.76 12.135l3.602 7.205a1.493 1.493 0 0 1-1.812 2.081l-8.609-2.907A21.406 21.406 0 0 1 21.5 43C9.645 43 0 33.355 0 21.5S9.645 0 21.5 0zm0 40.015c3.53 0 6.964-1.002 9.932-2.897a1.491 1.491 0 0 1 1.281-.156l5.839 1.972-2.385-4.77a1.493 1.493 0 0 1 .141-1.565A18.334 18.334 0 0 0 40.015 21.5c0-10.209-8.306-18.515-18.515-18.515-10.21 0-18.515 8.306-18.515 18.515 0 10.209 8.306 18.515 18.515 18.515zm-5.716-28.519a4.292 4.292 0 0 1 4.287 4.288 4.292 4.292 0 0 1-4.287 4.287 4.292 4.292 0 0 1-4.288-4.287 4.292 4.292 0 0 1 4.288-4.288zm0 5.717a1.43 1.43 0 0 0 1.429-1.43 1.43 1.43 0 0 0-1.43-1.428 1.43 1.43 0 0 0-1.428 1.429 1.43 1.43 0 0 0 1.429 1.429zm11.433 5.716a4.292 4.292 0 0 1 4.287 4.287 4.292 4.292 0 0 1-4.287 4.288 4.292 4.292 0 0 1-4.288-4.288 4.292 4.292 0 0 1 4.288-4.287zm0 5.716a1.43 1.43 0 0 0 1.429-1.429 1.43 1.43 0 0 0-1.43-1.429 1.43 1.43 0 0 0-1.429 1.43c0 .787.641 1.428 1.43 1.428zm1.356-14.218a1.429 1.429 0 0 1 0 2.021L16.447 28.574a1.425 1.425 0 0 1-2.021 0 1.43 1.43 0 0 1 0-2.02l12.126-12.127a1.43 1.43 0 0 1 2.021 0z" fill="#A7BC37" fill-rule="evenodd"/></svg>