<svg width="43" height="43" viewBox="0 0 43 43" xmlns="http://www.w3.org/2000/svg"><title>535B853E-A4DF-45C1-B2CA-287B220E4B91</title><path d="M2.69 12.598V6.567h37.484v6.03H2.69zm26.676 9.368h10.808v-7.06H29.367v7.06zm0 9.88h10.808v-7.574H29.366v7.574zm0 8.368h10.809V33.88H29.366v6.335zM16.34 21.966h10.367v-7.06H16.339v7.06zm0 9.88h10.367v-7.574H16.339v7.574zm0 8.368h10.367V33.88H16.339v6.335zM2.689 21.966v-7.06h10.958v7.06H2.69zm0 9.88v-7.574h10.958v7.574H2.69zm0 8.368V33.88h10.958v6.335H2.69zM29.367 3.91V1.955c0-1.08-.271-1.955-1.35-1.955-1.08 0-1.31.875-1.31 1.955v1.954H16.339V1.955C16.339.875 16.064 0 14.985 0c-1.08 0-1.338.875-1.338 1.955v1.954H1.955C.875 3.91 0 4.784 0 5.864v35.181C0 42.125.875 43 1.955 43h39.09c1.08 0 1.955-.875 1.955-1.955V5.864c0-1.08-.875-1.955-1.955-1.955H29.366z" fill="#FFF" fill-rule="evenodd"/></svg>