<svg width="41" height="36" viewBox="0 0 41 36" xmlns="http://www.w3.org/2000/svg"><title>B20AC01C-0849-41CF-AD05-56601C103FD6</title><path d="M34.315 35.769l-10.73-8.805H8.823C3.959 26.964 0 22.919 0 17.948V9.016C0 4.046 3.959 0 8.824 0h23.352C37.041 0 41 4.045 41 9.016v8.932c0 4.182-2.804 7.756-6.685 8.744v9.077zM2.563 9.016v8.932c0 3.558 2.809 6.453 6.26 6.453H24.5l7.252 5.95v-5.86l1.131-.135c3.167-.373 5.554-3.128 5.554-6.408V9.016c0-3.558-2.809-6.454-6.26-6.454H8.823c-3.452 0-6.261 2.896-6.261 6.454zM7.303 15c.457.277 1.404.604 2.139.604.75 0 1.06-.261 1.06-.67 0-.409-.244-.604-1.174-.914-1.65-.556-2.286-1.453-2.27-2.4 0-1.485 1.274-2.611 3.248-2.611.931 0 1.765.211 2.254.457l-.44 1.714c-.36-.197-1.045-.458-1.731-.458-.604 0-.947.245-.947.653 0 .375.31.572 1.29.915 1.517.521 2.154 1.29 2.17 2.464 0 1.486-1.174 2.58-3.46 2.58-1.045 0-1.976-.229-2.579-.555l.44-1.78zm7.035-5.812h2.09l.113 1.077h.049c.343-.505 1.045-1.256 2.416-1.256 1.029 0 1.844.522 2.187 1.354a4.136 4.136 0 0 1 1.061-.962c.442-.262.931-.392 1.52-.392 1.533 0 2.693 1.077 2.693 3.46v4.702h-2.416v-4.342c0-1.16-.377-1.83-1.176-1.83-.57 0-.98.392-1.142.866-.066.18-.098.44-.098.637v4.669h-2.416v-4.474c0-1.012-.36-1.697-1.144-1.697-.635 0-1.012.49-1.158.898-.082.195-.098.424-.098.62v4.653h-2.416v-5.437c0-.995-.033-1.844-.065-2.546zM28.423 15c.456.277 1.404.604 2.138.604.75 0 1.061-.261 1.061-.67 0-.409-.245-.604-1.175-.914-1.649-.556-2.286-1.453-2.27-2.4 0-1.485 1.274-2.611 3.249-2.611.93 0 1.763.211 2.253.457l-.44 1.714c-.36-.197-1.045-.458-1.73-.458-.605 0-.948.245-.948.653 0 .375.31.572 1.29.915 1.518.521 2.155 1.29 2.17 2.464 0 1.486-1.174 2.58-3.46 2.58-1.045 0-1.976-.229-2.579-.555l.44-1.78z" fill="#FFF" fill-rule="evenodd"/></svg>